<svg xmlns="http://www.w3.org/2000/svg" viewBox="0 0 512 512">
  <defs>
    <linearGradient id="sky" x1="0" y1="0" x2="0" y2="1">
      <stop offset="0" stop-color="#2a0a45"/>
      <stop offset="0.6" stop-color="#6b1f8f"/>
      <stop offset="1" stop-color="#c2408f"/>
    </linearGradient>
    <radialGradient id="ball" cx="0.35" cy="0.3" r="0.8">
      <stop offset="0" stop-color="#ffd6ee"/>
      <stop offset="0.55" stop-color="#ff6fb5"/>
      <stop offset="1" stop-color="#b0185a"/>
    </radialGradient>
  </defs>
  <rect width="512" height="512" fill="url(#sky)"/>
  <circle cx="256" cy="268" r="170" fill="url(#ball)" stroke="#fff" stroke-opacity="0.6" stroke-width="8"/>
  <ellipse cx="180" cy="178" rx="44" ry="22" fill="#fff" fill-opacity="0.55" transform="rotate(-40 180 178)"/>
  <!-- A letter "A" drawn as a path so icon generation needs no fonts. -->
  <path d="M256 150 L338 370 L296 370 L279 322 L233 322 L216 370 L174 370 Z M256 214 L244 290 L268 290 Z"
        fill="#fff" stroke="#6a1fb0" stroke-width="14" stroke-linejoin="round" paint-order="stroke"/>
  <g fill="#fff6c8">
    <path d="M96 96 l10 26 l26 10 l-26 10 l-10 26 l-10 -26 l-26 -10 l26 -10 z"/>
    <path d="M420 80 l7 18 l18 7 l-18 7 l-7 18 l-7 -18 l-18 -7 l18 -7 z"/>
    <path d="M430 400 l8 20 l20 8 l-20 8 l-8 20 l-8 -20 l-20 -8 l20 -8 z"/>
    <path d="M70 420 l6 15 l15 6 l-15 6 l-6 15 l-6 -15 l-15 -6 l15 -6 z"/>
  </g>
</svg>
